<?xml version="1.0" encoding="UTF-8" standalone="no"?>
<svg
   width="1859.6711"
   height="519.4696"
   viewBox="0 0 1859.6711 519.4696"
   role="img"
   aria-label="RosettaX Flow-cytometry Calibration logo"
   version="1.1"
   id="svg32"
   sodipodi:docname="logo_dark.svg"
   inkscape:version="1.4 (e7c3feb1, 2024-10-09)"
   xmlns:inkscape="http://www.inkscape.org/namespaces/inkscape"
   xmlns:sodipodi="http://sodipodi.sourceforge.net/DTD/sodipodi-0.dtd"
   xmlns="http://www.w3.org/2000/svg"
   xmlns:svg="http://www.w3.org/2000/svg">
  <sodipodi:namedview
     id="namedview32"
     pagecolor="#ffffff"
     bordercolor="#000000"
     borderopacity="0.25"
     inkscape:showpageshadow="2"
     inkscape:pageopacity="0.0"
     inkscape:pagecheckerboard="0"
     inkscape:deskcolor="#d1d1d1"
     inkscape:zoom="0.35418131"
     inkscape:cx="1214.0675"
     inkscape:cy="587.26984"
     inkscape:window-width="1712"
     inkscape:window-height="1073"
     inkscape:window-x="0"
     inkscape:window-y="34"
     inkscape:window-maximized="0"
     inkscape:current-layer="svg32" />
  <defs
     id="defs8">
    <linearGradient
       id="gMain"
       x1="0"
       y1="0"
       x2="1"
       y2="0">
      <stop
         offset="0"
         stop-color="#3865ff"
         id="stop1" />
      <stop
         offset="1"
         stop-color="#11cbd9"
         id="stop2" />
    </linearGradient>
    <linearGradient
       id="gCyan"
       x1="41.779964"
       y1="1342.4617"
       x2="94.987286"
       y2="1342.4617"
       gradientTransform="scale(4.092871,0.24432727)"
       gradientUnits="userSpaceOnUse">
      <stop
         offset="0"
         stop-color="#13d8df"
         id="stop3" />
      <stop
         offset="1"
         stop-color="#129dd7"
         id="stop4" />
    </linearGradient>
    <linearGradient
       id="gBlue"
       x1="124.29951"
       y1="1351.3479"
       x2="175.83833"
       y2="1351.3479"
       gradientTransform="scale(4.1231056,0.24253563)"
       gradientUnits="userSpaceOnUse">
      <stop
         offset="0"
         stop-color="#2777f7"
         id="stop5" />
      <stop
         offset="1"
         stop-color="#2958ed"
         id="stop6" />
    </linearGradient>
    <linearGradient
       id="gOrb"
       x1="413"
       y1="296"
       x2="489"
       y2="296"
       gradientUnits="userSpaceOnUse">
      <stop
         offset="0"
         stop-color="#3968ff"
         id="stop7" />
      <stop
         offset="1"
         stop-color="#0acfd9"
         id="stop8" />
    </linearGradient>
    <linearGradient
       id="gCyan-3"
       x1="41.779964"
       y1="1342.4617"
       x2="94.987289"
       y2="1342.4617"
       gradientTransform="scale(4.092871,0.24432727)"
       gradientUnits="userSpaceOnUse">
      <stop
         offset="0"
         stop-color="#13d8df"
         id="stop3-9" />
      <stop
         offset="1"
         stop-color="#129dd7"
         id="stop4-8" />
    </linearGradient>
    <linearGradient
       id="gBlue-6"
       x1="124.29951"
       y1="1351.3479"
       x2="175.83833"
       y2="1351.3479"
       gradientTransform="scale(4.1231056,0.24253563)"
       gradientUnits="userSpaceOnUse">
      <stop
         offset="0"
         stop-color="#2777f7"
         id="stop5-5" />
      <stop
         offset="1"
         stop-color="#2958ed"
         id="stop6-7" />
    </linearGradient>
    <linearGradient
       id="gOrb-6"
       x1="413"
       y1="296"
       x2="489"
       y2="296"
       gradientUnits="userSpaceOnUse">
      <stop
         offset="0"
         stop-color="#3968ff"
         id="stop7-2" />
      <stop
         offset="1"
         stop-color="#0acfd9"
         id="stop8-7" />
    </linearGradient>
  </defs>
  <g
     id="g1"
     transform="translate(-104,-107)">
    <rect
       width="1859.6711"
       height="519.4696"
       fill="#07090f"
       id="rect8"
       x="104"
       y="107"
       style="stroke-width:0.83165" />
    <g
       id="mark">
      <path
         d="m 171,334 c 74,-5 148,-6 211,-6 8,0 10,12 0,13 -67,0 -137,-2 -211,-7 z"
         fill="url(#gCyan)"
         id="path8"
         style="fill:url(#gCyan)" />
      <path
         d="m 520,328 c 80,-1 147,1 205,6 -58,5 -125,7 -205,6 -10,0 -10,-11 0,-12 z"
         fill="url(#gBlue)"
         id="path9"
         style="fill:url(#gBlue)" />
      <circle
         cx="451"
         cy="334"
         r="38"
         fill="url(#gOrb)"
         id="circle9"
         style="fill:url(#gOrb)" />
      <circle
         cx="391"
         cy="278"
         r="14"
         fill="#16c9dc"
         id="circle10" />
      <circle
         cx="365"
         cy="251"
         r="13"
         fill="#16c9dc"
         id="circle11" />
      <circle
         cx="338"
         cy="226"
         r="9"
         fill="#16c9dc"
         id="circle12" />
      <circle
         cx="309"
         cy="207"
         r="7"
         fill="#16c9dc"
         id="circle13" />
      <circle
         cx="281"
         cy="191"
         r="5"
         fill="#16c9dc"
         id="circle14" />
      <circle
         cx="391"
         cy="392"
         r="14"
         fill="#16c9dc"
         id="circle15" />
      <circle
         cx="365"
         cy="419"
         r="12"
         fill="#16c9dc"
         id="circle16" />
      <circle
         cx="338"
         cy="446"
         r="9"
         fill="#16c9dc"
         id="circle17" />
      <circle
         cx="309"
         cy="465"
         r="6.5"
         fill="#16c9dc"
         id="circle18" />
      <circle
         cx="281"
         cy="481"
         r="5"
         fill="#16c9dc"
         id="circle19" />
      <circle
         cx="511"
         cy="277"
         r="14"
         fill="#2d6df6"
         id="circle20" />
      <circle
         cx="538"
         cy="251"
         r="12"
         fill="#2d6df6"
         id="circle21" />
      <circle
         cx="567"
         cy="226"
         r="8"
         fill="#2d6df6"
         id="circle22" />
      <circle
         cx="595"
         cy="207"
         r="6.5"
         fill="#2d6df6"
         id="circle23" />
      <circle
         cx="623"
         cy="191"
         r="5"
         fill="#2d6df6"
         id="circle24" />
      <circle
         cx="511"
         cy="392"
         r="14"
         fill="#2d6df6"
         id="circle25" />
      <circle
         cx="538"
         cy="419"
         r="12"
         fill="#2d6df6"
         id="circle26" />
      <circle
         cx="567"
         cy="445"
         r="8.5"
         fill="#2d6df6"
         id="circle27" />
      <circle
         cx="595"
         cy="465"
         r="6.5"
         fill="#2d6df6"
         id="circle28" />
      <circle
         cx="623"
         cy="481"
         r="5"
         fill="#2d6df6"
         id="circle29" />
    </g>
    <path
       fill="#f4f4f5"
       d="m 770.806,434 h 30.71 v -66.113 h 45.622 c 0.398,0 0.973,0 1.371,0 L 889.573,434 h 34.604 l -44.56,-70.425 c 25.753,-7.875 41.374,-25.425 41.374,-49.8 0,-33.412 -27.657,-54.375 -71.774,-54.375 h -78.411 z m 30.71,-88.238 V 281.9 h 46.33 c 26.549,0 42.833,12.187 42.833,31.875 0,19.687 -16.151,31.987 -42.701,31.987 z m 210.469,91.05 c 41.728,0 69.827,-26.362 69.827,-64.462 0,-38.325 -28.099,-64.912 -69.827,-64.912 -41.772,0 -70.003,26.587 -70.003,64.912 0,38.1 28.231,64.462 70.003,64.462 z m 0,-21.337 c -25.045,0 -40.4,-16.763 -40.4,-43.125 0,-26.588 15.488,-43.575 40.4,-43.575 24.869,0 40.356,16.987 40.356,43.575 0,26.25 -15.354,43.125 -40.356,43.125 z m 149.753,21.45 c 34.029,0 58.897,-14.512 58.897,-38.1 0,-17.925 -13.009,-28.688 -41.462,-34.087 l -24.913,-4.688 c -13.142,-2.588 -21.019,-7.612 -21.019,-15.937 0,-9.488 10.532,-16.988 27.126,-16.988 17.257,0 28.585,8.775 28.895,20.85 h 27.922 c -0.841,-24.937 -24.338,-40.425 -57.26,-40.425 -33.453,0 -55.843,15.113 -55.843,37.05 0,18.375 14.381,30.225 41.904,35.362 l 24.161,4.576 c 12.611,2.362 21.019,7.274 21.019,15.712 0,9.825 -11.461,16.988 -30.002,16.988 -18.939,0 -30.001,-7.5 -31.639,-20.851 h -28.762 c 2.08,26.813 27.523,40.538 60.976,40.538 z m 146.971,-0.113 c 33.055,0 59.074,-16.537 64.472,-40.425 h -28.098 c -4.16,11.7 -16.859,19.801 -35.931,19.801 -25.577,0 -40.268,-15.113 -41.241,-37.388 h 107.483 v -6.675 c 0,-38.212 -26.86,-64.687 -68.189,-64.687 -39.825,0 -68.057,27.187 -68.057,64.912 0,37.388 26.285,64.462 69.561,64.462 z M 1268.22,360.05 c 2.478,-19.687 17.258,-31.988 39.25,-31.988 22.125,0 37.082,12.301 39.427,31.988 z m 202.726,-49.8 h -29.603 V 276.5 h -29.338 v 33.75 h -25.709 v 20.4 h 25.709 v 73.8 c 0,19.95 13.143,29.55 40.533,29.55 h 18.408 v -20.4 h -14.248 c -11.638,0 -15.355,-3.15 -15.355,-12.3 v -70.65 h 29.603 z m 93.478,0 h -29.603 V 276.5 h -29.338 v 33.75 h -25.709 v 20.4 h 25.709 v 73.8 c 0,19.95 13.143,29.55 40.533,29.55 h 18.408 v -20.4 h -14.248 c -11.638,0 -15.355,-3.15 -15.355,-12.3 v -70.65 h 29.603 z m 67.592,125.738 c 25.179,0 37.082,-9.601 43.144,-19.575 h 0.575 V 434 h 28.763 v -84.863 c 0,-25.162 -21.992,-41.362 -57.968,-41.362 -36.506,0 -60.135,16.65 -61.507,40.2 h 28.63 c 1.106,-11.362 13.806,-19.913 32.479,-19.913 18.541,0 29.471,8.663 29.471,20.626 v 1.05 c 0,9.037 -9.16,8.774 -36.507,11.587 -29.736,2.963 -57.702,9.038 -57.702,37.275 0,24.75 21.594,37.388 50.622,37.388 z m 5.974,-19.913 c -17.036,0 -27.523,-6.337 -27.523,-16.988 0,-12.562 14.381,-17.362 30.267,-19.349 15.487,-1.875 30.975,-3.863 35.001,-6.563 v 14.55 c 0,15.225 -12.036,28.35 -37.745,28.35 z"
       id="path29" />
    <path
       d="m 1719.7,258 h 26 l 64,88 -64,88 h -26 l 64,-88 z"
       fill="#2d6df6"
       id="path30" />
    <path
       d="m 1879.7,258 h 28 l -64,88 64,88 h -28 l -62,-88 z"
       fill="#16c9dc"
       id="path31" />
    <g
       id="g32"
       transform="matrix(1.3,0,0,1.3,-400.3215,-159.4785)">
      <path
         fill="#f4f4f5"
         d="m 962.63,547 h 5.62 v -21.34 h 21.78 v -5 h -21.78 v -15.22 h 23.66 v -5 h -29.28 z m 40.089,-46.56 h -5.31 V 547 h 5.31 z m 21.497,47.31 c 9.16,0 15.32,-7.13 15.32,-17.19 0,-10.12 -6.16,-17.31 -15.32,-17.31 -9.15,0 -15.31,7.19 -15.31,17.31 0,10.06 6.16,17.19 15.31,17.19 z m 0,-4.81 c -6.25,0 -9.93,-4.88 -9.93,-12.38 0,-7.56 3.71,-12.5 9.93,-12.5 6.22,0 9.94,4.97 9.94,12.5 0,7.47 -3.69,12.38 -9.94,12.38 z m 28.755,4.06 h 5.44 l 4.43,-15 c 1.07,-3.63 2.03,-7.44 3,-11.16 0.97,3.72 1.94,7.53 2.97,11.16 l 4.35,15 h 5.56 l 10.25,-33 h -5.56 l -4.25,14.5 c -1.16,3.97 -2.22,8.12 -3.32,12.16 -1.09,-4.04 -2.12,-8.19 -3.25,-12.16 l -4.12,-14.5 h -5.25 l -4.19,14.5 c -1.16,4 -2.22,8.25 -3.31,12.31 -1.1,-4.06 -2.13,-8.31 -3.28,-12.31 l -4.16,-14.5 h -5.56 z m 60.845,-21.5 h -20.38 v 5 h 20.38 z m 21.088,22.25 c 7.44,0 13,-5 13.91,-11.5 h -5.47 c -1.03,4.03 -3.5,6.69 -8.44,6.69 -6.25,0 -9.93,-4.88 -9.93,-12.38 0,-7.56 3.71,-12.5 9.93,-12.5 4.88,0 7.75,2.81 8.53,6.69 h 5.38 c -0.91,-6.66 -6.41,-11.5 -13.91,-11.5 -9.15,0 -15.31,7.19 -15.31,17.31 0,10.06 6.16,17.19 15.31,17.19 z m 20.099,12.31 h 3.25 c 4.149,0 7.44,-2.5 9.149,-6.93 l 15.22,-39.13 h -5.649 l -7,19 c -0.911,2.47 -1.821,4.94 -2.69,7.41 -0.84,-2.47 -1.721,-4.94 -2.661,-7.41 l -7.119,-19 h -5.75 l 12.78,32.72 -1.81,4.69 c -1.071,2.75 -2.44,3.97 -4.47,3.97 h -3.25 z M 1201.902,514 h -6.679 v -9 h -5.321 v 9 h -5.869 v 4.56 h 5.869 v 21 c 0,4.97 2.791,7.44 8.44,7.44 h 3.56 v -4.56 h -3.06 c -2.72,0 -3.619,-0.88 -3.619,-3.44 v -20.44 h 6.679 z m 19.127,33.75 c 9.16,0 15.32,-7.13 15.32,-17.19 0,-10.12 -6.16,-17.31 -15.32,-17.31 -9.15,0 -15.31,7.19 -15.31,17.31 0,10.06 6.16,17.19 15.31,17.19 z m 0,-4.81 c -6.25,0 -9.93,-4.88 -9.93,-12.38 0,-7.56 3.71,-12.5 9.93,-12.5 6.22,0 9.94,4.97 9.94,12.5 0,7.47 -3.69,12.38 -9.94,12.38 z m 21.505,4.06 h 5.31 v -20.13 c 0,-5.68 3.81,-8.62 7.97,-8.62 4,0 6.97,2.62 6.97,6.56 V 547 h 5.31 v -21 c 0,-4.47 2.94,-7.75 7.78,-7.75 3.78,0 7.16,2 7.16,7.12 V 547 h 5.31 v -21.63 c 0,-8.12 -4.94,-12 -10.97,-12 -4.9,0 -8.59,2.57 -10.4,5.94 -1.38,-3.31 -4.94,-5.94 -9.47,-5.94 -4.03,0 -7.69,2.1 -9.78,5.97 V 514 h -5.19 z m 67.307,0.75 c 7.19,0 12.82,-4.31 14.07,-10.63 h -5.32 c -1,3.44 -4.06,5.82 -8.75,5.82 -6.25,0 -9.81,-4.44 -10.06,-10.91 h 24.69 v -1.47 c 0,-10.25 -5.81,-17.31 -15,-17.31 -8.75,0 -14.94,7.28 -14.94,17.31 0,9.94 5.63,17.19 15.31,17.19 z m -10,-20.28 c 0.57,-5.81 4.22,-9.47 9.63,-9.47 5.44,0 9.12,3.66 9.69,9.47 z M 1344.934,514 h -6.68 v -9 h -5.32 v 9 h -5.87 v 4.56 h 5.87 v 21 c 0,4.97 2.79,7.44 8.44,7.44 h 3.56 v -4.56 h -3.06 c -2.72,0 -3.62,-0.88 -3.62,-3.44 v -20.44 h 6.68 z m 5.506,33 h 5.31 v -20.31 c 0,-5.6 3.16,-8.07 6.81,-8.07 1.53,0 2.82,0.25 3.25,0.38 v -5.31 c -0.43,-0.07 -1.28,-0.19 -2.25,-0.19 -4.12,0 -6.72,2.28 -7.93,5.69 h -0.13 V 514 h -5.06 z m 20.875,13.06 h 3.25 c 4.15,0 7.44,-2.5 9.15,-6.93 l 15.22,-39.13 h -5.65 l -7,19 c -0.91,2.47 -1.82,4.94 -2.69,7.41 -0.84,-2.47 -1.72,-4.94 -2.66,-7.41 l -7.12,-19 h -5.75 l 12.78,32.72 -1.81,4.69 c -1.07,2.75 -2.44,3.97 -4.47,3.97 h -3.25 z m 68.9,-12.31 c 9.75,0 17.5,-6.06 19.19,-15.75 h -5.72 c -1.59,6.75 -6.75,10.5 -13.47,10.5 -9.81,0 -15.9,-7.69 -15.9,-18.75 0,-11.13 6.09,-18.81 15.9,-18.81 6.79,0 11.94,3.78 13.44,10.56 h 5.75 c -1.72,-9.72 -9.44,-15.81 -19.19,-15.81 -12.9,0 -21.53,9.97 -21.53,24.06 0,14 8.66,24 21.53,24 z m 35.879,-0.25 c 6,0 8.59,-2.81 9.81,-5.19 h 0.13 V 547 h 5.25 v -22.75 c 0,-6.53 -4.88,-10.88 -12.56,-10.88 -7.82,0 -13.16,4.47 -13.44,10.5 h 5.4 c 0.25,-3.28 3.44,-5.81 8.04,-5.81 4.62,0 7.31,2.6 7.31,6.19 v 0.31 c 0,2.53 -2.03,2.28 -8.31,3.13 -6.63,0.87 -13.13,2.25 -13.13,9.81 0,6.59 4.94,10 11.5,10 z m 0.75,-4.75 c -4.22,0 -6.81,-1.84 -6.81,-4.94 0,-3.72 3.62,-5.03 7.44,-5.56 3.78,-0.53 7.75,-1.13 8.56,-1.88 v 4.13 c 0,4.31 -2.69,8.25 -9.19,8.25 z m 27.625,-42.31 h -5.31 V 547 h 5.31 z m 7.877,46.56 h 5.31 v -33 h -5.31 z m 2.65,-39.44 c 2,0 3.63,-1.62 3.63,-3.62 0,-2 -1.63,-3.63 -3.63,-3.63 -2,0 -3.62,1.63 -3.62,3.63 0,2 1.62,3.62 3.62,3.62 z m 26.228,40.07 c 8.59,0 14.31,-6.97 14.31,-17.13 0,-10.19 -5.72,-17.13 -14.31,-17.13 -4.29,0 -8.19,1.82 -10.32,5.5 h -0.06 v -18.43 h -5.31 V 547 h 5.19 v -5 h 0.06 c 2.37,3.81 6.15,5.63 10.44,5.63 z m -0.82,-4.79 c -6.12,0 -10,-4.87 -10,-12.34 0,-7.47 3.88,-12.38 10,-12.38 5.72,0 9.75,4.29 9.75,12.38 0,8.09 -4.03,12.34 -9.75,12.34 z m 21.317,4.16 h 5.31 v -20.31 c 0,-5.6 3.16,-8.07 6.81,-8.07 1.53,0 2.82,0.25 3.25,0.38 v -5.31 c -0.43,-0.07 -1.28,-0.19 -2.25,-0.19 -4.12,0 -6.72,2.28 -7.93,5.69 h -0.13 V 514 h -5.06 z m 30.685,0.5 c 6,0 8.59,-2.81 9.81,-5.19 h 0.13 V 547 h 5.25 v -22.75 c 0,-6.53 -4.88,-10.88 -12.56,-10.88 -7.82,0 -13.16,4.47 -13.44,10.5 h 5.4 c 0.25,-3.28 3.44,-5.81 8.04,-5.81 4.62,0 7.31,2.6 7.31,6.19 v 0.31 c 0,2.53 -2.03,2.28 -8.31,3.13 -6.63,0.87 -13.13,2.25 -13.13,9.81 0,6.59 4.94,10 11.5,10 z m 0.75,-4.75 c -4.22,0 -6.81,-1.84 -6.81,-4.94 0,-3.72 3.62,-5.03 7.44,-5.56 3.78,-0.53 7.75,-1.13 8.56,-1.88 v 4.13 c 0,4.31 -2.69,8.25 -9.19,8.25 z M 1629.871,514 h -6.68 v -9 h -5.32 v 9 h -5.87 v 4.56 h 5.87 v 21 c 0,4.97 2.79,7.44 8.44,7.44 h 3.56 v -4.56 h -3.06 c -2.72,0 -3.62,-0.88 -3.62,-3.44 v -20.44 h 6.68 z m 5.507,33 h 5.31 v -33 h -5.31 z m 2.65,-39.44 c 2,0 3.63,-1.62 3.63,-3.62 0,-2 -1.63,-3.63 -3.63,-3.63 -2,0 -3.62,1.63 -3.62,3.63 0,2 1.62,3.62 3.62,3.62 z m 24.157,40.19 c 9.16,0 15.32,-7.13 15.32,-17.19 0,-10.12 -6.16,-17.31 -15.32,-17.31 -9.15,0 -15.31,7.19 -15.31,17.31 0,10.06 6.16,17.19 15.31,17.19 z m 0,-4.81 c -6.25,0 -9.93,-4.88 -9.93,-12.38 0,-7.56 3.71,-12.5 9.93,-12.5 6.22,0 9.94,4.97 9.94,12.5 0,7.47 -3.69,12.38 -9.94,12.38 z M 1689,527.69 c 0,-6.66 3.88,-9.44 8.69,-9.44 4.94,0 7.81,2.91 7.81,8.62 V 547 h 5.31 v -20.5 c 0,-8.78 -5.47,-13.13 -12.12,-13.13 -4.19,0 -7.53,1.72 -9.81,5.47 V 514 h -5.19 v 33 h 5.31 z"
         id="path32" />
      <line
         x1="958"
         y1="561"
         x2="1706.2"
         y2="561"
         stroke="#f4f4f5"
         stroke-width="5"
         stroke-linecap="butt"
         id="line32" />
    </g>
  </g>
</svg>
