<?xml version="1.0" encoding="UTF-8"?>
<svg xmlns="http://www.w3.org/2000/svg" width="2048" height="682" viewBox="0 0 2048 682" role="img" aria-label="RosettaX Flow-cytometry Calibration logo">
<defs>
<linearGradient id="gMain" x1="0" y1="0" x2="1" y2="0"><stop offset="0" stop-color="#3865ff"/><stop offset="1" stop-color="#11cbd9"/></linearGradient>
<linearGradient id="gCyan" x1="0" y1="0" x2="1" y2="0"><stop offset="0" stop-color="#13d8df"/><stop offset="1" stop-color="#129dd7"/></linearGradient>
<linearGradient id="gBlue" x1="0" y1="0" x2="1" y2="0"><stop offset="0" stop-color="#2777f7"/><stop offset="1" stop-color="#2958ed"/></linearGradient>
<linearGradient id="gOrb" x1="0" y1="0" x2="1" y2="0"><stop offset="0" stop-color="#3968ff"/><stop offset="1" stop-color="#0acfd9"/></linearGradient>
</defs>
<rect width="2048" height="682" fill="#ffffff"/>
<g id="mark">
<path d="M171,334 C245,329 319,328 382,328 C390,328 392,340 382,341 C315,341 245,339 171,334 Z" fill="url(#gCyan)"/>
<path d="M520,328 C600,327 667,329 725,334 C667,339 600,341 520,340 C510,340 510,329 520,328 Z" fill="url(#gBlue)"/>
<circle cx="451" cy="334" r="38" fill="url(#gOrb)"/>
<circle cx="391" cy="278" r="14" fill="#16c9dc"/>
<circle cx="365" cy="251" r="13" fill="#16c9dc"/>
<circle cx="338" cy="226" r="9" fill="#16c9dc"/>
<circle cx="309" cy="207" r="7" fill="#16c9dc"/>
<circle cx="281" cy="191" r="5" fill="#16c9dc"/>
<circle cx="391" cy="392" r="14" fill="#16c9dc"/>
<circle cx="365" cy="419" r="12" fill="#16c9dc"/>
<circle cx="338" cy="446" r="9" fill="#16c9dc"/>
<circle cx="309" cy="465" r="6.5" fill="#16c9dc"/>
<circle cx="281" cy="481" r="5" fill="#16c9dc"/>
<circle cx="511" cy="277" r="14" fill="#2d6df6"/>
<circle cx="538" cy="251" r="12" fill="#2d6df6"/>
<circle cx="567" cy="226" r="8" fill="#2d6df6"/>
<circle cx="595" cy="207" r="6.5" fill="#2d6df6"/>
<circle cx="623" cy="191" r="5" fill="#2d6df6"/>
<circle cx="511" cy="392" r="14" fill="#2d6df6"/>
<circle cx="538" cy="419" r="12" fill="#2d6df6"/>
<circle cx="567" cy="445" r="8.5" fill="#2d6df6"/>
<circle cx="595" cy="465" r="6.5" fill="#2d6df6"/>
<circle cx="623" cy="481" r="5" fill="#2d6df6"/>
</g>
<path fill="#26272a" d="M770.806,434.000 L801.516,434.000 L801.516,367.887 L847.138,367.887 C847.536,367.887 848.111,367.887 848.509,367.887 L889.573,434.000 L924.177,434.000 L879.617,363.575 C905.370,355.700 920.991,338.150 920.991,313.775 C920.991,280.363 893.334,259.400 849.217,259.400 L770.806,259.400 L770.806,434.000 Z M801.516,345.762 L801.516,281.900 L847.846,281.900 C874.395,281.900 890.679,294.087 890.679,313.775 C890.679,333.462 874.528,345.762 847.978,345.762 L801.516,345.762 Z M1011.985,436.812 C1053.713,436.812 1081.812,410.450 1081.812,372.350 C1081.812,334.025 1053.713,307.438 1011.985,307.438 C970.213,307.438 941.982,334.025 941.982,372.350 C941.982,410.450 970.213,436.812 1011.985,436.812 Z M1011.985,415.475 C986.940,415.475 971.585,398.712 971.585,372.350 C971.585,345.762 987.073,328.775 1011.985,328.775 C1036.854,328.775 1052.341,345.762 1052.341,372.350 C1052.341,398.600 1036.987,415.475 1011.985,415.475 Z M1161.738,436.925 C1195.767,436.925 1220.635,422.413 1220.635,398.825 C1220.635,380.900 1207.626,370.137 1179.173,364.738 L1154.260,360.050 C1141.118,357.462 1133.241,352.438 1133.241,344.113 C1133.241,334.625 1143.773,327.125 1160.367,327.125 C1177.624,327.125 1188.952,335.900 1189.262,347.975 L1217.184,347.975 C1216.343,323.038 1192.846,307.550 1159.924,307.550 C1126.471,307.550 1104.081,322.663 1104.081,344.600 C1104.081,362.975 1118.462,374.825 1145.985,379.962 L1170.146,384.538 C1182.757,386.900 1191.165,391.812 1191.165,400.250 C1191.165,410.075 1179.704,417.238 1161.163,417.238 C1142.224,417.238 1131.162,409.738 1129.524,396.387 L1100.762,396.387 C1102.842,423.200 1128.285,436.925 1161.738,436.925 Z M1308.709,436.812 C1341.764,436.812 1367.783,420.275 1373.181,396.387 L1345.083,396.387 C1340.923,408.087 1328.224,416.188 1309.152,416.188 C1283.575,416.188 1268.884,401.075 1267.911,378.800 L1375.394,378.800 L1375.394,372.125 C1375.394,333.913 1348.534,307.438 1307.205,307.438 C1267.380,307.438 1239.148,334.625 1239.148,372.350 C1239.148,409.738 1265.433,436.812 1308.709,436.812 Z M1268.220,360.050 C1270.698,340.363 1285.478,328.062 1307.470,328.062 C1329.595,328.062 1344.552,340.363 1346.897,360.050 L1268.220,360.050 Z M1470.946,310.250 L1441.343,310.250 L1441.343,276.500 L1412.005,276.500 L1412.005,310.250 L1386.296,310.250 L1386.296,330.650 L1412.005,330.650 L1412.005,404.450 C1412.005,424.400 1425.148,434.000 1452.538,434.000 L1470.946,434.000 L1470.946,413.600 L1456.698,413.600 C1445.060,413.600 1441.343,410.450 1441.343,401.300 L1441.343,330.650 L1470.946,330.650 L1470.946,310.250 Z M1564.424,310.250 L1534.821,310.250 L1534.821,276.500 L1505.483,276.500 L1505.483,310.250 L1479.774,310.250 L1479.774,330.650 L1505.483,330.650 L1505.483,404.450 C1505.483,424.400 1518.626,434.000 1546.016,434.000 L1564.424,434.000 L1564.424,413.600 L1550.176,413.600 C1538.538,413.600 1534.821,410.450 1534.821,401.300 L1534.821,330.650 L1564.424,330.650 L1564.424,310.250 Z M1632.016,435.988 C1657.195,435.988 1669.098,426.387 1675.160,416.413 L1675.735,416.413 L1675.735,434.000 L1704.498,434.000 L1704.498,349.137 C1704.498,323.975 1682.506,307.775 1646.530,307.775 C1610.024,307.775 1586.395,324.425 1585.023,347.975 L1613.653,347.975 C1614.759,336.613 1627.459,328.062 1646.132,328.062 C1664.673,328.062 1675.603,336.725 1675.603,348.688 L1675.603,349.738 C1675.603,358.775 1666.443,358.512 1639.096,361.325 C1609.360,364.288 1581.394,370.363 1581.394,398.600 C1581.394,423.350 1602.988,435.988 1632.016,435.988 Z M1637.990,416.075 C1620.954,416.075 1610.467,409.738 1610.467,399.087 C1610.467,386.525 1624.848,381.725 1640.734,379.738 C1656.221,377.863 1671.709,375.875 1675.735,373.175 L1675.735,387.725 C1675.735,402.950 1663.699,416.075 1637.990,416.075 Z"/>
<path d="M1719.7,258 L1745.7,258 L1809.7,346 L1745.7,434 L1719.7,434 L1783.7,346 Z" fill="#2d6df6"/>
<path d="M1879.7,258 L1907.7,258 L1843.7,346 L1907.7,434 L1879.7,434 L1817.7,346 Z" fill="#16c9dc"/>
<path fill="#26272a" d="M962.630,547.000 L968.250,547.000 L968.250,525.660 L990.030,525.660 L990.030,520.660 L968.250,520.660 L968.250,505.440 L991.910,505.440 L991.910,500.440 L962.630,500.440 L962.630,547.000 Z M1002.719,500.440 L997.409,500.440 L997.409,547.000 L1002.719,547.000 L1002.719,500.440 Z M1024.216,547.750 C1033.376,547.750 1039.536,540.620 1039.536,530.560 C1039.536,520.440 1033.376,513.250 1024.216,513.250 C1015.066,513.250 1008.906,520.440 1008.906,530.560 C1008.906,540.620 1015.066,547.750 1024.216,547.750 Z M1024.216,542.940 C1017.966,542.940 1014.286,538.060 1014.286,530.560 C1014.286,523.000 1017.996,518.060 1024.216,518.060 C1030.436,518.060 1034.156,523.030 1034.156,530.560 C1034.156,538.030 1030.466,542.940 1024.216,542.940 Z M1052.971,547.000 L1058.411,547.000 L1062.841,532.000 C1063.911,528.370 1064.871,524.560 1065.841,520.840 C1066.811,524.560 1067.781,528.370 1068.811,532.000 L1073.161,547.000 L1078.721,547.000 L1088.971,514.000 L1083.411,514.000 L1079.161,528.500 C1078.001,532.470 1076.941,536.620 1075.841,540.660 C1074.751,536.620 1073.721,532.470 1072.591,528.500 L1068.471,514.000 L1063.221,514.000 L1059.031,528.500 C1057.871,532.500 1056.811,536.750 1055.721,540.810 C1054.621,536.750 1053.591,532.500 1052.441,528.500 L1048.281,514.000 L1042.721,514.000 L1052.971,547.000 Z M1113.816,525.500 L1093.436,525.500 L1093.436,530.500 L1113.816,530.500 L1113.816,525.500 Z M1134.904,547.750 C1142.344,547.750 1147.904,542.750 1148.814,536.250 L1143.344,536.250 C1142.314,540.280 1139.844,542.940 1134.904,542.940 C1128.654,542.940 1124.974,538.060 1124.974,530.560 C1124.974,523.000 1128.684,518.060 1134.904,518.060 C1139.784,518.060 1142.654,520.870 1143.434,524.750 L1148.814,524.750 C1147.904,518.090 1142.404,513.250 1134.904,513.250 C1125.754,513.250 1119.594,520.440 1119.594,530.560 C1119.594,540.620 1125.754,547.750 1134.904,547.750 Z M1155.003,560.060 L1158.253,560.060 C1162.402,560.060 1165.693,557.560 1167.402,553.130 L1182.622,514.000 L1176.973,514.000 L1169.973,533.000 C1169.062,535.470 1168.152,537.940 1167.283,540.410 C1166.443,537.940 1165.562,535.470 1164.622,533.000 L1157.503,514.000 L1151.753,514.000 L1164.533,546.720 L1162.723,551.410 C1161.652,554.160 1160.283,555.380 1158.253,555.380 L1155.003,555.380 L1155.003,560.060 Z M1201.902,514.000 L1195.223,514.000 L1195.223,505.000 L1189.902,505.000 L1189.902,514.000 L1184.033,514.000 L1184.033,518.560 L1189.902,518.560 L1189.902,539.560 C1189.902,544.530 1192.693,547.000 1198.342,547.000 L1201.902,547.000 L1201.902,542.440 L1198.842,542.440 C1196.122,542.440 1195.223,541.560 1195.223,539.000 L1195.223,518.560 L1201.902,518.560 L1201.902,514.000 Z M1221.029,547.750 C1230.189,547.750 1236.349,540.620 1236.349,530.560 C1236.349,520.440 1230.189,513.250 1221.029,513.250 C1211.879,513.250 1205.719,520.440 1205.719,530.560 C1205.719,540.620 1211.879,547.750 1221.029,547.750 Z M1221.029,542.940 C1214.779,542.940 1211.099,538.060 1211.099,530.560 C1211.099,523.000 1214.809,518.060 1221.029,518.060 C1227.249,518.060 1230.969,523.030 1230.969,530.560 C1230.969,538.030 1227.279,542.940 1221.029,542.940 Z M1242.534,547.000 L1247.844,547.000 L1247.844,526.870 C1247.844,521.190 1251.654,518.250 1255.814,518.250 C1259.814,518.250 1262.784,520.870 1262.784,524.810 L1262.784,547.000 L1268.094,547.000 L1268.094,526.000 C1268.094,521.530 1271.034,518.250 1275.874,518.250 C1279.654,518.250 1283.034,520.250 1283.034,525.370 L1283.034,547.000 L1288.344,547.000 L1288.344,525.370 C1288.344,517.250 1283.404,513.370 1277.374,513.370 C1272.474,513.370 1268.784,515.940 1266.974,519.310 C1265.594,516.000 1262.034,513.370 1257.504,513.370 C1253.474,513.370 1249.814,515.470 1247.724,519.340 L1247.724,514.000 L1242.534,514.000 L1242.534,547.000 Z M1309.841,547.750 C1317.031,547.750 1322.661,543.440 1323.911,537.120 L1318.591,537.120 C1317.591,540.560 1314.531,542.940 1309.841,542.940 C1303.591,542.940 1300.031,538.500 1299.781,532.030 L1324.471,532.030 L1324.471,530.560 C1324.471,520.310 1318.661,513.250 1309.471,513.250 C1300.721,513.250 1294.531,520.530 1294.531,530.560 C1294.531,540.500 1300.161,547.750 1309.841,547.750 Z M1299.841,527.470 C1300.411,521.660 1304.061,518.000 1309.471,518.000 C1314.911,518.000 1318.591,521.660 1319.161,527.470 L1299.841,527.470 Z M1344.934,514.000 L1338.254,514.000 L1338.254,505.000 L1332.934,505.000 L1332.934,514.000 L1327.064,514.000 L1327.064,518.560 L1332.934,518.560 L1332.934,539.560 C1332.934,544.530 1335.724,547.000 1341.374,547.000 L1344.934,547.000 L1344.934,542.440 L1341.874,542.440 C1339.154,542.440 1338.254,541.560 1338.254,539.000 L1338.254,518.560 L1344.934,518.560 L1344.934,514.000 Z M1350.440,547.000 L1355.750,547.000 L1355.750,526.690 C1355.750,521.090 1358.910,518.620 1362.560,518.620 C1364.090,518.620 1365.380,518.870 1365.810,519.000 L1365.810,513.690 C1365.380,513.620 1364.530,513.500 1363.560,513.500 C1359.440,513.500 1356.840,515.780 1355.630,519.190 L1355.500,519.190 L1355.500,514.000 L1350.440,514.000 L1350.440,547.000 Z M1371.315,560.060 L1374.565,560.060 C1378.715,560.060 1382.005,557.560 1383.715,553.130 L1398.935,514.000 L1393.285,514.000 L1386.285,533.000 C1385.375,535.470 1384.465,537.940 1383.595,540.410 C1382.755,537.940 1381.875,535.470 1380.935,533.000 L1373.815,514.000 L1368.065,514.000 L1380.845,546.720 L1379.035,551.410 C1377.965,554.160 1376.595,555.380 1374.565,555.380 L1371.315,555.380 L1371.315,560.060 Z M1440.215,547.750 C1449.965,547.750 1457.715,541.690 1459.405,532.000 L1453.685,532.000 C1452.095,538.750 1446.935,542.500 1440.215,542.500 C1430.405,542.500 1424.315,534.810 1424.315,523.750 C1424.315,512.620 1430.405,504.940 1440.215,504.940 C1447.005,504.940 1452.155,508.720 1453.655,515.500 L1459.405,515.500 C1457.685,505.780 1449.965,499.690 1440.215,499.690 C1427.315,499.690 1418.685,509.660 1418.685,523.750 C1418.685,537.750 1427.345,547.750 1440.215,547.750 Z M1476.094,547.500 C1482.094,547.500 1484.684,544.690 1485.904,542.310 L1486.034,542.310 L1486.034,547.000 L1491.284,547.000 L1491.284,524.250 C1491.284,517.720 1486.404,513.370 1478.724,513.370 C1470.904,513.370 1465.564,517.840 1465.284,523.870 L1470.684,523.870 C1470.934,520.590 1474.124,518.060 1478.724,518.060 C1483.344,518.060 1486.034,520.660 1486.034,524.250 L1486.034,524.560 C1486.034,527.090 1484.004,526.840 1477.724,527.690 C1471.094,528.560 1464.594,529.940 1464.594,537.500 C1464.594,544.090 1469.534,547.500 1476.094,547.500 Z M1476.844,542.750 C1472.624,542.750 1470.034,540.910 1470.034,537.810 C1470.034,534.090 1473.654,532.780 1477.474,532.250 C1481.254,531.720 1485.224,531.120 1486.034,530.370 L1486.034,534.500 C1486.034,538.810 1483.344,542.750 1476.844,542.750 Z M1504.469,500.440 L1499.159,500.440 L1499.159,547.000 L1504.469,547.000 L1504.469,500.440 Z M1512.346,547.000 L1517.656,547.000 L1517.656,514.000 L1512.346,514.000 L1512.346,547.000 Z M1514.996,507.560 C1516.996,507.560 1518.626,505.940 1518.626,503.940 C1518.626,501.940 1516.996,500.310 1514.996,500.310 C1512.996,500.310 1511.376,501.940 1511.376,503.940 C1511.376,505.940 1512.996,507.560 1514.996,507.560 Z M1541.224,547.630 C1549.814,547.630 1555.534,540.660 1555.534,530.500 C1555.534,520.310 1549.814,513.370 1541.224,513.370 C1536.934,513.370 1533.034,515.190 1530.904,518.870 L1530.844,518.870 L1530.844,500.440 L1525.534,500.440 L1525.534,547.000 L1530.724,547.000 L1530.724,542.000 L1530.784,542.000 C1533.154,545.810 1536.934,547.630 1541.224,547.630 Z M1540.404,542.840 C1534.284,542.840 1530.404,537.970 1530.404,530.500 C1530.404,523.030 1534.284,518.120 1540.404,518.120 C1546.124,518.120 1550.154,522.410 1550.154,530.500 C1550.154,538.590 1546.124,542.840 1540.404,542.840 Z M1561.721,547.000 L1567.031,547.000 L1567.031,526.690 C1567.031,521.090 1570.191,518.620 1573.841,518.620 C1575.371,518.620 1576.661,518.870 1577.091,519.000 L1577.091,513.690 C1576.661,513.620 1575.811,513.500 1574.841,513.500 C1570.721,513.500 1568.121,515.780 1566.911,519.190 L1566.781,519.190 L1566.781,514.000 L1561.721,514.000 L1561.721,547.000 Z M1592.406,547.500 C1598.406,547.500 1600.996,544.690 1602.216,542.310 L1602.346,542.310 L1602.346,547.000 L1607.596,547.000 L1607.596,524.250 C1607.596,517.720 1602.716,513.370 1595.036,513.370 C1587.216,513.370 1581.876,517.840 1581.596,523.870 L1586.996,523.870 C1587.246,520.590 1590.436,518.060 1595.036,518.060 C1599.656,518.060 1602.346,520.660 1602.346,524.250 L1602.346,524.560 C1602.346,527.090 1600.316,526.840 1594.036,527.690 C1587.406,528.560 1580.906,529.940 1580.906,537.500 C1580.906,544.090 1585.846,547.500 1592.406,547.500 Z M1593.156,542.750 C1588.936,542.750 1586.346,540.910 1586.346,537.810 C1586.346,534.090 1589.966,532.780 1593.786,532.250 C1597.566,531.720 1601.536,531.120 1602.346,530.370 L1602.346,534.500 C1602.346,538.810 1599.656,542.750 1593.156,542.750 Z M1629.871,514.000 L1623.191,514.000 L1623.191,505.000 L1617.871,505.000 L1617.871,514.000 L1612.001,514.000 L1612.001,518.560 L1617.871,518.560 L1617.871,539.560 C1617.871,544.530 1620.661,547.000 1626.311,547.000 L1629.871,547.000 L1629.871,542.440 L1626.811,542.440 C1624.091,542.440 1623.191,541.560 1623.191,539.000 L1623.191,518.560 L1629.871,518.560 L1629.871,514.000 Z M1635.378,547.000 L1640.688,547.000 L1640.688,514.000 L1635.378,514.000 L1635.378,547.000 Z M1638.028,507.560 C1640.028,507.560 1641.658,505.940 1641.658,503.940 C1641.658,501.940 1640.028,500.310 1638.028,500.310 C1636.028,500.310 1634.408,501.940 1634.408,503.940 C1634.408,505.940 1636.028,507.560 1638.028,507.560 Z M1662.185,547.750 C1671.345,547.750 1677.505,540.620 1677.505,530.560 C1677.505,520.440 1671.345,513.250 1662.185,513.250 C1653.035,513.250 1646.875,520.440 1646.875,530.560 C1646.875,540.620 1653.035,547.750 1662.185,547.750 Z M1662.185,542.940 C1655.935,542.940 1652.255,538.060 1652.255,530.560 C1652.255,523.000 1655.965,518.060 1662.185,518.060 C1668.405,518.060 1672.125,523.030 1672.125,530.560 C1672.125,538.030 1668.435,542.940 1662.185,542.940 Z M1689.000,527.690 C1689.000,521.030 1692.880,518.250 1697.690,518.250 C1702.630,518.250 1705.500,521.160 1705.500,526.870 L1705.500,547.000 L1710.810,547.000 L1710.810,526.500 C1710.810,517.720 1705.340,513.370 1698.690,513.370 C1694.500,513.370 1691.160,515.090 1688.880,518.840 L1688.880,514.000 L1683.690,514.000 L1683.690,547.000 L1689.000,547.000 L1689.000,527.690 Z"/>
<line x1="958.0" y1="561.0" x2="1706.2" y2="561.0" stroke="#26272a" stroke-width="5" stroke-linecap="butt"/>
</svg>